<?xml version="1.0" encoding="UTF-8" standalone="no"?>
<!-- Uploaded to: SVG Repo, www.svgrepo.com, Generator: SVG Repo Mixer Tools -->

<svg
   width="800"
   height="800"
   viewBox="0 0 24 24"
   fill="none"
   version="1.1"
   id="svg4"
   sodipodi:docname="fav.svg"
   inkscape:version="1.2.2 (b0a8486541, 2022-12-01)"
   inkscape:export-filename="fav.svg"
   inkscape:export-xdpi="96"
   inkscape:export-ydpi="96"
   xmlns:inkscape="http://www.inkscape.org/namespaces/inkscape"
   xmlns:sodipodi="http://sodipodi.sourceforge.net/DTD/sodipodi-0.dtd"
   xmlns="http://www.w3.org/2000/svg"
   xmlns:svg="http://www.w3.org/2000/svg">
  <sodipodi:namedview
     id="namedview5"
     pagecolor="#ffffff"
     bordercolor="#000000"
     borderopacity="0.25"
     inkscape:showpageshadow="2"
     inkscape:pageopacity="0.0"
     inkscape:pagecheckerboard="0"
     inkscape:deskcolor="#d1d1d1"
     showgrid="false"
     inkscape:zoom="0.47690366"
     inkscape:cx="817.77523"
     inkscape:cy="602.84712"
     inkscape:window-width="1920"
     inkscape:window-height="995"
     inkscape:window-x="0"
     inkscape:window-y="0"
     inkscape:window-maximized="1"
     inkscape:current-layer="svg4" />
  <defs
     id="defs8" />
  <circle
     style="fill:#ffffff;stroke-width:0.0333642"
     id="path302"
     cx="12"
     cy="12"
     r="12" />
  <path
     d="m 12,3.61067 c 1.7455,1.41224 2.4557,3.62986 2.0286,5.68661 1.4122,-0.81405 3.164,-1.01483 4.8113,-0.40064 0.4082,0.15219 0.7975,0.3509 1.1602,0.5922 l -0.0162,0.04341 c -0.7745,2.07725 -2.6373,3.43165 -4.7004,3.65755 1.2217,1.1072 1.9571,2.7321 1.8737,4.5082 -0.0195,0.4157 -0.0844,0.828 -0.1933,1.2296 L 16.9443,19 C 14.724,18.8957 12.8588,17.5395 11.9989,15.6458 11.3193,17.1455 9.99941,18.3418 8.28535,18.8067 7.88372,18.9157 7.47141,18.9805 7.05573,19 L 7.0361,18.9276 C 6.45366,16.7804 7.17413,14.587 8.71576,13.1878 7.10325,13.0123 5.57728,12.1487 4.60828,10.6923 4.36699,10.3297 4.16829,9.9404 4.01611,9.53225 L 3.99992,9.48884 C 5.85282,8.25605 8.16659,8.25653 9.97308,9.29573 9.63103,7.65333 10.0026,5.87656 11.1401,4.47058 11.3958,4.15457 11.684,3.86634 12,3.61067 Z m 5.0885,4.93183 c 0.5839,0.02373 1.1741,0.13888 1.7514,0.35414 0.4082,0.15219 0.7975,0.3509 1.1602,0.5922 l -0.0162,0.04341 c -0.7745,2.07725 -2.6373,3.43165 -4.7004,3.65755 1.2217,1.1072 1.9571,2.7321 1.8737,4.5082 -0.0195,0.4157 -0.0844,0.828 -0.1933,1.2296 L 16.9443,19 C 14.724,18.8957 12.8588,17.5395 11.9989,15.6458 11.3193,17.1455 9.99941,18.3418 8.28535,18.8067 7.88372,18.9157 7.47141,18.9805 7.05573,19 L 7.0361,18.9276 C 6.45366,16.7804 7.17413,14.587 8.71576,13.1878 7.10325,13.0123 5.57728,12.1487 4.60828,10.6923 4.36699,10.3297 4.16829,9.9404 4.01611,9.53225 L 3.99992,9.48884 C 4.89884,8.89076 5.90623,8.58295 6.91154,8.54319 9.9067886,8.6657769 8.8790638,9.4407807 9.86612,8.53069 9.76334,7.11588 10.1774,5.66045 11.1401,4.47058 11.3958,4.15457 11.684,3.86634 12,3.61067 c 1.5296,1.23757 2.2642,3.09363 2.135,4.91792 -0.133105,0.7395296 0.09858,0.054462 2.9535,0.01391 z m -6.7256,4.7723 C 10.1278,13.2893 9.95788,13.078 9.98339,12.8428 9.99356,12.7492 10.0343,12.6615 10.0994,12.5933 l 0.0384,-0.0402 c 0.3905,-0.4091 0.5673,-0.9773 0.4778,-1.5357 L 10.61,10.9826 c -0.0385,-0.2402 0.125,-0.4661 0.3652,-0.5046 0.0916,-0.0147 0.1855,-10e-5 0.2683,0.0417 0.48,0.2423 1.0502,0.2245 1.5141,-0.0474 l 0.0309,-0.0181 c 0.1995,-0.1169 0.456,-0.0499 0.5729,0.1495 0.0498,0.085 0.0681,0.1848 0.0515,0.282 l -0.0096,0.0568 c -0.0912,0.5356 0.0866,1.0818 0.4755,1.461 0.1794,0.1749 0.183,0.4621 0.0081,0.6414 -0.0646,0.0663 -0.1479,0.1112 -0.2388,0.1287 l -0.0126,0.0025 c -0.5434,0.1048 -1.0042,0.4626 -1.2405,0.963 l -0.0297,0.0629 c -0.099,0.2097 -0.3492,0.2994 -0.5588,0.2004 -0.0872,-0.0412 -0.1576,-0.1112 -0.1993,-0.1982 L 11.601,14.1912 C 11.3677,13.7045 10.8995,13.373 10.3629,13.3148 Z"
     stroke="#000000"
     stroke-linejoin="round"
     id="path2" />
</svg>
